<?xml version="1.0" encoding="utf-8"?>
<!-- Generator: Adobe Illustrator 26.0.1, SVG Export Plug-In . SVG Version: 6.00 Build 0)  -->
<svg version="1.1" id="Layer_1" xmlns="http://www.w3.org/2000/svg" xmlns:xlink="http://www.w3.org/1999/xlink" x="0px" y="0px"
	 viewBox="0 0 115 90" style="enable-background:new 0 0 115 90;" xml:space="preserve">
<style type="text/css">
	.st0{fill:#FFFFFF;}
</style>
<g>
	<g>
		<path class="st0" d="M16.6,62.8h-2.5l0.3-1.4h6.9l-0.3,1.4h-2.5l-1.5,7.1h-1.8L16.6,62.8z"/>
		<path class="st0" d="M22.1,61.4h1.7l-0.7,3.4c0.3-0.3,0.8-0.9,1.9-0.9c0.9,0,1.4,0.4,1.6,0.8c0.1,0.3,0.2,0.8,0,1.6l-0.8,3.6h-1.7
			l0.8-3.5c0.1-0.3,0.3-1.3-0.7-1.3c-0.5,0-1.2,0.3-1.4,1.2L22,69.9h-1.8L22.1,61.4z"/>
		<path class="st0" d="M29.2,67.4c-0.1,0.4-0.3,1.6,0.9,1.6c0.4,0,0.9-0.2,1.2-0.8h1.6c-0.1,0.3-0.2,0.8-0.8,1.3
			c-0.5,0.5-1.4,0.7-2.2,0.7c-0.5,0-1.4-0.1-1.9-0.7c-0.4-0.6-0.5-1.4-0.3-2.3c0.2-1,0.7-2.1,1.8-2.8c0.5-0.3,1.1-0.5,1.8-0.5
			c0.8,0,1.8,0.3,2.1,1.4c0.2,0.8,0,1.7-0.1,2.2H29.2z M31.7,66.3c0.1-0.3,0.3-1.3-0.8-1.3c-0.8,0-1.2,0.6-1.4,1.3H31.7z"/>
		<path class="st0" d="M38.9,67.2c-0.1,0.4-0.4,1.6,1.2,1.6c1,0,1.7-0.5,1.9-1.2c0.2-0.8-0.3-0.9-1.4-1.1c-1.9-0.5-2.9-1.1-2.6-2.6
			c0.3-1.4,1.6-2.6,3.9-2.6c0.9,0,1.9,0.2,2.3,1c0.4,0.6,0.2,1.3,0.1,1.6h-1.8c0-0.3,0.2-1.3-1.1-1.3c-0.8,0-1.5,0.5-1.6,1.2
			c-0.2,0.8,0.4,0.9,1.6,1.2c1.4,0.4,2.8,0.8,2.4,2.4c-0.3,1.5-1.9,2.8-4.2,2.8c-3.3,0-2.8-2.1-2.7-2.9H38.9z"/>
		<path class="st0" d="M48.1,69.8C47.5,70,47,70,46.7,70c-1.8,0-1.5-1.1-1.4-1.6l0.7-3.3h-1.1l0.2-1.2h1.1l0.2-1.2l1.9-0.6L47.9,64
			h1.4l-0.2,1.2h-1.4l-0.6,2.7c-0.1,0.5-0.2,0.9,0.6,0.9c0.3,0,0.4,0,0.6,0L48.1,69.8z"/>
		<path class="st0" d="M50.7,67.4c-0.1,0.4-0.3,1.6,0.9,1.6c0.4,0,0.9-0.2,1.2-0.8h1.6c-0.1,0.3-0.2,0.8-0.8,1.3
			c-0.5,0.5-1.4,0.7-2.2,0.7c-0.5,0-1.4-0.1-1.9-0.7c-0.4-0.6-0.5-1.4-0.3-2.3c0.2-1,0.7-2.1,1.8-2.8c0.5-0.3,1.1-0.5,1.8-0.5
			c0.8,0,1.8,0.3,2.1,1.4c0.2,0.8,0,1.7-0.1,2.2H50.7z M53.2,66.3c0.1-0.3,0.3-1.3-0.8-1.3c-0.8,0-1.2,0.6-1.4,1.3H53.2z"/>
		<path class="st0" d="M57.7,64l0.5,4l2.2-4H62l-3.4,5.9h-1.9L55.8,64H57.7z"/>
		<path class="st0" d="M63.3,67.4C63.3,67.8,63,69,64.2,69c0.4,0,0.9-0.2,1.2-0.8H67c-0.1,0.3-0.2,0.8-0.8,1.3
			c-0.5,0.5-1.4,0.7-2.2,0.7c-0.5,0-1.4-0.1-1.9-0.7c-0.4-0.6-0.5-1.4-0.3-2.3c0.2-1,0.7-2.1,1.8-2.8c0.5-0.3,1.1-0.5,1.8-0.5
			c0.8,0,1.8,0.3,2.1,1.4c0.2,0.8,0,1.7-0.1,2.2H63.3z M65.8,66.3C65.8,66,66,65,65,65c-0.8,0-1.2,0.6-1.4,1.3H65.8z"/>
		<path class="st0" d="M72.6,62.8h-2.5l0.3-1.4h6.9L77,62.8h-2.5L73,69.9h-1.8L72.6,62.8z"/>
		<path class="st0" d="M75.5,65.4c0.1-0.3,0.2-1.1,0.2-1.5h1.6l-0.2,1.1c0.3-0.5,0.9-1.2,2.3-1.2l-0.3,1.6c-1.7-0.2-2,0.7-2.2,1.5
			l-0.6,2.9h-1.7L75.5,65.4z"/>
		<path class="st0" d="M82.8,63.8c2.2,0,2.8,1.5,2.4,3.1c-0.4,1.7-1.6,3.2-3.8,3.2c-1.7,0-2.8-1-2.4-3.1
			C79.3,65.6,80.4,63.8,82.8,63.8z M81.7,68.9c0.8,0,1.4-0.5,1.7-2c0.2-0.8,0.2-1.9-0.9-1.9c-1.3,0-1.6,1.5-1.7,2
			C80.5,68.3,80.9,68.9,81.7,68.9z"/>
		<path class="st0" d="M88.7,64L88,67.5c-0.1,0.5-0.3,1.3,0.7,1.3c1.1,0,1.3-0.8,1.5-1.8l0.6-3h1.8l-0.8,3.9
			c-0.2,1.3-0.3,1.4-0.3,1.6c0,0.2,0,0.3,0,0.4h-1.7l0.1-0.8c-0.2,0.3-0.8,0.9-2,0.9c-0.8,0-1.4-0.4-1.6-0.8c-0.3-0.5-0.1-1.3,0-1.6
			l0.8-3.7H88.7z"/>
		<path class="st0" d="M96.3,69.8C95.7,70,95.2,70,94.9,70c-1.8,0-1.5-1.1-1.4-1.6l0.7-3.3h-1.1l0.2-1.2h1.1l0.2-1.2l1.9-0.6
			L96.2,64h1.4l-0.2,1.2h-1.4l-0.6,2.7c-0.1,0.5-0.2,0.9,0.6,0.9c0.3,0,0.4,0,0.6,0L96.3,69.8z"/>
		<path class="st0" d="M41.2,74l1.1,8.5h-1.8l-0.2-1.8h-3.4l-1,1.8h-1.7l4.9-8.5H41.2z M40.1,79.2l-0.4-3.6l-2,3.6H40.1z"/>
		<path class="st0" d="M49.9,76.5c-0.1,0.5-0.3,0.9-0.4,1.5l-0.9,4.4c-0.5,2.2-2.3,2.4-3.5,2.4c-0.8,0-2.5-0.1-2.2-1.9h1.7
			c0,0.2-0.1,0.8,0.9,0.8c0.5,0,1-0.2,1.2-0.8c0.1-0.3,0.2-0.5,0.4-1.4c-0.7,0.7-1.3,0.8-1.8,0.8c-1.7,0-2.2-1.5-1.9-2.9
			c0.3-1.5,1.5-2.9,3.2-2.9c1.1,0,1.4,0.6,1.5,0.8l0.2-0.8H49.9z M45.9,81.1c1.2,0,1.5-1.4,1.6-1.7c0.1-0.7,0.3-1.8-0.8-1.8
			c-0.7,0-1.3,0.5-1.6,1.8C45.1,79.7,44.8,81.1,45.9,81.1z"/>
		<path class="st0" d="M51.8,79.9c-0.1,0.4-0.3,1.6,0.9,1.6c0.4,0,0.9-0.2,1.2-0.8h1.6c-0.1,0.3-0.2,0.8-0.8,1.3
			c-0.5,0.5-1.4,0.7-2.2,0.7c-0.5,0-1.4-0.1-1.9-0.7c-0.4-0.6-0.5-1.4-0.3-2.3c0.2-1,0.7-2.1,1.8-2.8c0.5-0.3,1.1-0.5,1.8-0.5
			c0.8,0,1.8,0.3,2.1,1.4c0.2,0.8,0,1.7-0.1,2.2H51.8z M54.2,78.8c0.1-0.3,0.3-1.3-0.8-1.3c-0.8,0-1.2,0.6-1.4,1.3H54.2z"/>
		<path class="st0" d="M57.3,77.6c0,0,0.1-0.7,0.2-1.1h1.7l-0.1,0.9c0.2-0.3,0.9-1,2.1-1c1.2,0,1.5,0.7,1.6,1.1
			c0.1,0.4,0,0.7-0.2,1.8l-0.7,3.2h-1.8l0.8-3.7c0.1-0.2,0.1-0.5,0-0.6c-0.1-0.3-0.3-0.5-0.7-0.5c-0.4,0-0.8,0.2-1,0.5
			c-0.1,0.2-0.3,0.4-0.4,0.9l-0.7,3.5h-1.8L57.3,77.6z"/>
		<path class="st0" d="M67.3,78.6c0-0.2,0.1-1.1-0.5-1.1c-0.8,0-1.2,1.2-1.3,1.9c-0.1,0.3-0.3,1.4,0,1.8c0.1,0.2,0.3,0.2,0.4,0.2
			c0.2,0,0.7-0.1,1-1.1h1.7c-0.1,0.5-0.3,1.2-1.1,1.8c-0.5,0.4-1.1,0.6-1.8,0.6c-0.8,0-1.4-0.2-1.9-0.8c-0.4-0.6-0.5-1.4-0.3-2.3
			c0.6-2.7,2.6-3.1,3.4-3.1c1.1,0,2.3,0.6,1.9,2.2H67.3z"/>
		<path class="st0" d="M71.7,76.5l0.4,4.1l2.2-4.1H76l-3.5,5.8l-1.2,2.4h-1.8l1.2-2.2l-1-6H71.7z"/>
	</g>
	<rect x="5.1" y="55.4" class="st0" width="99.2" height="0.7"/>
	<g>
		<path class="st0" d="M9.9,27.5v5.4c0.7,0,1.2-0.1,1.4-0.3c0.2-0.2,0.3-0.7,0.3-1.5v-1.8c0-0.8-0.1-1.3-0.3-1.5
			C11.1,27.6,10.7,27.5,9.9,27.5 M9.9,20.1v4.4c0.2,0,0.4,0,0.5,0c0.5,0,0.8-0.1,1-0.4c0.1-0.2,0.2-0.9,0.2-2.1c0-0.6-0.1-1-0.2-1.3
			c-0.1-0.2-0.3-0.4-0.4-0.5C10.8,20.1,10.4,20.1,9.9,20.1 M4.8,16.7h5.1c1.6,0,2.8,0.1,3.6,0.4c0.8,0.2,1.5,0.8,2,1.5
			c0.5,0.8,0.8,2,0.8,3.7c0,1.1-0.2,1.9-0.5,2.4c-0.4,0.5-1.1,0.8-2.1,1c1.2,0.3,2,0.7,2.4,1.3c0.4,0.6,0.6,1.6,0.6,2.8v1.8
			c0,1.3-0.2,2.3-0.5,2.9c-0.3,0.6-0.8,1.1-1.4,1.3c-0.7,0.2-2,0.3-4.1,0.3H4.8V16.7"/>
		<path class="st0" d="M22.8,20.3l-0.2,2.1c0.7-1.5,2-2.3,3.4-2.4v5.6c-0.9,0-1.8,0.1-2.3,0.4c-0.4,0.2-0.7,0.6-0.8,1
			c-0.1,0.4-0.1,1.4-0.1,3v6.3h-4.9v-16H22.8"/>
		<rect x="27.1" y="22" class="st0" width="5" height="14.3"/>
		<path class="st0" d="M39.7,24.5c0-0.7,0-1.2-0.1-1.4c-0.1-0.2-0.3-0.3-0.6-0.3c-0.3,0-0.5,0.1-0.6,0.3c-0.1,0.2-0.2,0.7-0.2,1.4
			v5.4c0,0.7,0,1.2,0.1,1.4c0.1,0.2,0.3,0.3,0.6,0.3c0.3,0,0.5-0.1,0.6-0.4c0.1-0.3,0.1-0.8,0.1-1.7V24.5z M44.6,20.3v12.3
			c0,1.7,0,2.7-0.1,3.2c-0.1,0.5-0.3,1-0.8,1.5c-0.5,0.5-1.1,1-2,1.2c-0.8,0.3-1.9,0.4-3.2,0.4c-1.6,0-2.8-0.3-3.7-0.8
			c-0.9-0.5-1.4-1.6-1.5-3.1H38c0,0.7,0.3,1,0.8,1c0.4,0,0.6-0.1,0.7-0.3c0.1-0.2,0.2-0.7,0.2-1.4v-1.2c-0.4,0.4-0.9,0.7-1.3,0.9
			c-0.5,0.2-1,0.3-1.5,0.3c-0.9,0-1.6-0.2-2.2-0.5c-0.6-0.4-1-0.8-1.2-1.4c-0.2-0.6-0.3-1.4-0.3-2.5v-5.8c0-1.5,0.3-2.6,0.8-3.3
			c0.5-0.7,1.4-1,2.5-1c0.6,0,1.2,0.1,1.7,0.4c0.5,0.3,1,0.6,1.4,1.1l0.4-1.2H44.6"/>
		<path class="st0" d="M50.7,16.7v4.4c0.4-0.4,0.9-0.7,1.4-0.9c0.5-0.2,1-0.3,1.6-0.3c0.9,0,1.6,0.2,2.2,0.7c0.6,0.4,1,0.9,1.1,1.5
			c0.1,0.6,0.2,1.6,0.2,3.1v11.1h-4.9V25c0-0.9,0-1.5-0.1-1.8c-0.1-0.3-0.3-0.4-0.6-0.4c-0.3,0-0.5,0.1-0.6,0.4
			c-0.1,0.3-0.2,0.8-0.2,1.6v11.4h-4.9V16.7H50.7"/>
		<path class="st0" d="M63.8,17.8v2.5H65v3.3h-1.3v8.2c0,1.1,0.1,1.6,0.2,1.8c0.1,0.1,0.6,0.2,1.3,0.2v2.6h-2c-1.1,0-1.9,0-2.4-0.1
			c-0.5-0.1-0.9-0.3-1.3-0.6c-0.4-0.3-0.6-0.7-0.7-1.1c-0.1-0.4-0.1-1.4-0.1-3v-7.8h-1v-3.3h1v-2.5H63.8"/>
		<path class="st0" d="M82.6,20.3l-2,16h-5.3c-0.3-2-0.6-4.5-1-7.8c-0.1,1.4-0.3,2.9-0.6,4.3l-0.5,3.5H68l-2.1-16h4.2
			c0,0.4,0.4,3.5,1.1,9.2c0.1-0.6,0.4-3.7,1.1-9.2h4.1l1,9.2c0.2-2.7,0.6-5.8,1.1-9.2H82.6"/>
		<path class="st0" d="M89.3,28.6c-0.8,0.6-1.2,1-1.4,1.4c-0.1,0.4-0.2,0.9-0.2,1.7c0,0.8,0.1,1.4,0.2,1.6c0.1,0.2,0.3,0.4,0.6,0.4
			c0.3,0,0.5-0.1,0.6-0.3c0.1-0.2,0.1-0.7,0.1-1.5V28.6z M87.7,26.4h-4.6v-1.1c0-1.2,0.1-2.2,0.4-2.9c0.3-0.7,0.9-1.3,1.7-1.8
			c0.9-0.5,2-0.8,3.4-0.8c1.7,0,2.9,0.3,3.7,0.9c0.8,0.6,1.3,1.3,1.5,2.2c0.2,0.8,0.3,2.6,0.3,5.2v8h-4.8v-1.5
			c-0.3,0.6-0.7,1-1.2,1.3c-0.5,0.3-1,0.4-1.7,0.4c-0.9,0-1.6-0.2-2.3-0.7c-0.7-0.5-1.1-1.5-1.1-3.1v-1.3c0-1.2,0.2-2,0.6-2.5
			c0.4-0.4,1.3-0.9,2.8-1.5c1.6-0.6,2.5-1,2.6-1.3c0.1-0.2,0.2-0.7,0.2-1.3c0-0.8-0.1-1.4-0.2-1.6c-0.1-0.3-0.3-0.4-0.6-0.4
			c-0.3,0-0.5,0.1-0.6,0.3c-0.1,0.2-0.1,0.8-0.1,1.6V26.4"/>
		<path class="st0" d="M105.7,20.3l-1.4,11.6c-0.2,1.8-0.4,3.1-0.6,3.8c-0.2,0.7-0.4,1.2-0.7,1.7c-0.3,0.4-0.8,0.8-1.4,1
			c-0.6,0.2-1.6,0.3-2.9,0.3h-2.9V36c0.8,0,1.2,0,1.5-0.1c0.2-0.1,0.3-0.2,0.3-0.5c0-0.1-0.1-0.7-0.3-1.7l-2.7-13.4h4.4l1.6,10.9
			l0.8-10.9H105.7"/>
		<polygon class="st0" points="32.8,38.5 4.8,38.5 4.8,37.4 32.1,37.4 		"/>
		<polygon class="st0" points="94.2,38.5 45,38.5 45.8,37.4 94.2,37.4 		"/>
		<path class="st0" d="M32.2,18.1c0,1.4-1.2,2.6-2.6,2.6c-1.4,0-2.6-1.2-2.6-2.6c0-1.4,1.2-2.6,2.6-2.6C31,15.5,32.2,16.7,32.2,18.1
			"/>
		<path class="st0" d="M26.4,17.7l-9.7,0.4l9.7,0.4c0-0.1,0-0.2,0-0.4C26.3,18,26.4,17.8,26.4,17.7 M27.6,15.5L20.5,9l6.6,7.1
			C27.2,15.9,27.4,15.7,27.6,15.5 M32.8,17.7c0,0.1,0,0.3,0,0.4c0,0.1,0,0.3,0,0.4l9.7-0.4L32.8,17.7z M32.2,16.1L38.7,9l-7.1,6.6
			C31.8,15.7,32,15.9,32.2,16.1 M30,14.9l-0.4-9.7l-0.4,9.7c0.1,0,0.3,0,0.4,0C29.7,14.9,29.9,14.9,30,14.9"/>
		<rect x="4.8" y="40.8" class="st0" width="2.4" height="7.9"/>
		<polygon class="st0" points="11.8,48.7 11.8,40.8 15.1,40.8 18.2,46.3 18.3,46.3 18.3,40.8 20.5,40.8 20.5,48.7 17.3,48.7 
			14.1,42.9 14.1,42.9 14.1,48.7 		"/>
		<path class="st0" d="M28.2,48.8c-3,0-3.6-1.2-3.5-2.6h2.5c0,0.8,0,1.4,1.4,1.4c0.8,0,1.2-0.4,1.2-0.9c0-1.4-4.9-1.5-4.9-3.9
			c0-1.2,0.9-2.2,3.9-2.2c2.4,0,3.6,0.7,3.4,2.4h-2.4c0-0.6-0.1-1.2-1.1-1.2c-0.8,0-1.3,0.3-1.3,0.8c0,1.5,4.9,1.4,4.9,3.9
			C32.3,48.6,30.1,48.8,28.2,48.8"/>
		<path class="st0" d="M44.4,40.8v5.6c0,1.2-1,2.4-4,2.4c-2.7,0-4-0.9-4-2.4v-5.6h2.4v5.5c0,1,0.6,1.4,1.5,1.4
			c1.1,0,1.6-0.5,1.6-1.4v-5.5H44.4"/>
		<path class="st0" d="M51.2,44.2h1.1c1,0,1.2-0.7,1.2-1.2c0-0.8-0.5-1-1.2-1h-1.1V44.2z M51.2,48.7h-2.4v-7.9h4.5
			c1.7,0,2.7,0.7,2.7,2.1c0,1-0.6,1.8-2.2,1.9v0c0.5,0,2.1,0.1,2.1,1.6c0,0.5,0,2,0.3,2.3h-2.4c-0.3-0.5-0.3-1-0.3-1.5
			c0-0.9,0.1-1.7-1.8-1.7h-0.6V48.7"/>
		<path class="st0" d="M64.1,42.3L64.1,42.3L63,45.7h2.3L64.1,42.3z M59.4,48.7l3.2-7.9h3.2l3.2,7.9h-2.6L65.8,47h-3.3l-0.7,1.7
			H59.4z"/>
		<polygon class="st0" points="72.6,48.7 72.6,40.8 75.9,40.8 79.1,46.3 79.1,46.3 79.1,40.8 81.4,40.8 81.4,48.7 78.2,48.7 
			75,42.9 74.9,42.9 74.9,48.7 		"/>
		<path class="st0" d="M85.8,44.8c0-2.1,0-4.1,4-4.1c2.5,0,3.5,0.9,3.4,2.6h-2.4c0-1.1-0.3-1.4-1-1.4c-1.4,0-1.6,0.9-1.6,2.9
			c0,2,0.2,2.9,1.6,2.9c1.1,0,1.1-1,1.1-1.6h2.4c0,2.1-1.3,2.8-3.5,2.8C85.8,48.8,85.8,46.8,85.8,44.8"/>
		<polygon class="st0" points="97.3,48.7 97.3,40.8 103.7,40.8 103.7,42 99.8,42 99.8,44 103.4,44 103.4,45.2 99.8,45.2 99.8,47.5 
			103.8,47.5 103.8,48.7 		"/>
		<path class="st0" d="M107.9,22.2h0.2c0.2,0,0.5-0.1,0.5-0.3c0-0.2-0.1-0.3-0.4-0.3c-0.1,0-0.2,0-0.2,0V22.2z M107.9,23.3h-0.5
			v-1.9c0.2,0,0.4-0.1,0.7-0.1c0.4,0,0.5,0.1,0.7,0.2c0.1,0.1,0.2,0.2,0.2,0.4c0,0.2-0.2,0.4-0.4,0.5v0c0.2,0.1,0.3,0.2,0.3,0.5
			c0.1,0.3,0.1,0.4,0.1,0.5h-0.5c-0.1-0.1-0.1-0.2-0.2-0.5c0-0.2-0.2-0.3-0.4-0.3h-0.2V23.3z M106.7,22.3c0,0.9,0.7,1.6,1.5,1.6
			c0.8,0,1.5-0.7,1.5-1.5c0-0.9-0.6-1.6-1.5-1.6C107.3,20.7,106.7,21.4,106.7,22.3 M110.2,22.3c0,1.1-0.9,2-2,2c-1.1,0-2-0.9-2-2
			c0-1.1,0.9-1.9,2-1.9C109.3,20.3,110.2,21.2,110.2,22.3"/>
	</g>
</g>
</svg>
