<?xml version="1.0" encoding="UTF-8"?><svg id="Layer_1" xmlns="http://www.w3.org/2000/svg" viewBox="0 0 185.36 126.59"><defs><style>.cls-1{fill:#fff;}</style></defs><rect class="cls-1" x="28.52" y="75.27" width="128.76" height=".83"/><g><path class="cls-1" d="m35,39.7v6.95c.92-.03,1.51-.17,1.76-.43.26-.25.38-.88.38-1.88v-2.31c0-1.07-.11-1.71-.34-1.94-.23-.22-.83-.35-1.8-.38m0-9.43v5.55c.28-.01.5-.01.65-.01.64,0,1.05-.16,1.23-.47.17-.31.26-1.21.26-2.69,0-.78-.07-1.33-.22-1.64-.14-.31-.33-.51-.56-.59-.24-.08-.68-.13-1.36-.14m-6.48-4.28h6.47c2.05,0,3.59.16,4.65.48,1.05.32,1.9.96,2.55,1.93.65.97.97,2.54.97,4.69,0,1.46-.23,2.48-.68,3.05-.46.58-1.36,1.02-2.7,1.33,1.5.34,2.51.9,3.05,1.69.53.79.8,1.99.8,3.61v2.31c0,1.68-.19,2.93-.58,3.74-.39.81-1,1.37-1.84,1.66-.84.3-2.57.44-5.18.44h-7.51v-24.94"/><path class="cls-1" d="m51.49,30.5l-.23,2.69c.9-1.95,2.59-2.99,4.3-3.1v7.17c-1.15,0-2.36.16-2.9.47-.54.31-.87.74-.99,1.29-.12.55-.18,1.82-.18,3.81v8.09h-6.25v-20.43h6.25"/><rect class="cls-1" x="56.9" y="32.65" width="6.42" height="18.27"/><path class="cls-1" d="m72.94,35.91c0-.93-.06-1.53-.16-1.78-.11-.26-.35-.39-.71-.39s-.61.14-.76.44c-.15.29-.22.87-.22,1.73v6.87c0,.91.06,1.51.17,1.78.11.28.35.41.71.41.41,0,.67-.16.79-.49.12-.32.19-1.07.19-2.23v-6.33Zm6.25-5.41v15.74c0,2.12-.05,3.5-.15,4.12-.1.62-.44,1.28-1.04,1.97-.6.69-1.43,1.22-2.49,1.58-1.06.36-2.4.55-4.02.55-1.98,0-3.58-.34-4.78-1.01-1.2-.67-1.83-2-1.87-3.97h6.02c0,.88.33,1.32,1.01,1.32.48,0,.8-.13.96-.41.16-.27.24-.85.24-1.73v-1.53c-.54.49-1.1.86-1.69,1.11-.59.25-1.21.37-1.86.37-1.12,0-2.05-.22-2.78-.68-.73-.45-1.22-1.04-1.49-1.78-.27-.73-.41-1.78-.41-3.14v-7.44c0-1.94.35-3.34,1.05-4.2.7-.85,1.76-1.28,3.19-1.28.78,0,1.5.16,2.14.49.65.32,1.22.81,1.72,1.47l.46-1.55h5.79"/><path class="cls-1" d="m87.09,25.98v5.61c.53-.5,1.11-.88,1.73-1.13.62-.25,1.28-.37,1.99-.37,1.09,0,2.01.27,2.78.83.77.55,1.23,1.19,1.4,1.92.17.73.25,2.05.25,3.97v14.11h-6.25v-14.38c0-1.19-.06-1.96-.17-2.3-.11-.34-.38-.51-.78-.51-.37,0-.62.17-.76.52-.13.35-.2,1.04-.2,2.08v14.58h-6.25v-24.94h6.25"/><path class="cls-1" d="m103.7,27.31v3.18h1.62v4.17h-1.62v10.48c0,1.34.07,2.1.2,2.25.14.16.71.23,1.71.23v3.3h-2.5c-1.41,0-2.42-.05-3.03-.18-.61-.12-1.14-.39-1.6-.82-.46-.43-.75-.92-.86-1.46-.11-.55-.17-1.85-.17-3.88v-9.93h-1.33v-4.17h1.33v-3.18h6.25"/><path class="cls-1" d="m127.76,30.5l-2.5,20.43h-6.74c-.37-2.5-.81-5.8-1.31-9.91-.18,1.82-.41,3.64-.7,5.47l-.67,4.44h-6.74l-2.68-20.43h5.32c.06.53.53,4.44,1.42,11.74.09-.78.55-4.69,1.38-11.74h5.18l1.26,11.74c.23-3.44.71-7.36,1.45-11.74h5.35"/><path class="cls-1" d="m136.25,41.17c-.99.73-1.57,1.34-1.73,1.83-.16.49-.24,1.2-.24,2.12,0,1.06.07,1.74.2,2.04.14.3.41.46.83.46.39,0,.64-.12.76-.36.12-.25.18-.88.18-1.9v-4.2Zm-1.97-2.8h-5.85v-1.36c0-1.58.19-2.8.55-3.66.37-.86,1.1-1.62,2.2-2.27,1.1-.66,2.53-.99,4.3-.99,2.11,0,3.7.37,4.77,1.12,1.07.75,1.71,1.66,1.93,2.75.22,1.08.32,3.32.32,6.7v10.27h-6.08v-1.86c-.38.74-.87,1.29-1.47,1.65-.6.37-1.32.55-2.15.55-1.09,0-2.09-.3-3-.91-.91-.61-1.37-1.95-1.37-4.02v-1.68c0-1.53.24-2.58.73-3.13.48-.55,1.68-1.2,3.59-1.94,2.04-.8,3.14-1.34,3.28-1.62.15-.27.22-.83.22-1.68,0-1.06-.08-1.74-.24-2.06-.16-.32-.42-.48-.79-.48-.42,0-.68.14-.78.41-.1.27-.15.97-.15,2.1v2.12"/><path class="cls-1" d="m157.23,30.5l-1.77,14.77c-.29,2.36-.52,3.97-.71,4.82-.19.85-.51,1.56-.95,2.11-.44.55-1.05.96-1.83,1.22-.79.26-2.04.39-3.76.39h-3.76v-3.3c.96,0,1.58-.05,1.86-.15.27-.1.41-.31.41-.66,0-.16-.13-.88-.39-2.14l-3.39-17.08h5.6l2.07,13.85,1.03-13.85h5.58"/><polygon class="cls-1" points="64.23 53.79 28.53 53.79 28.53 52.41 63.31 52.41 64.23 53.79"/><polygon class="cls-1" points="142.47 53.79 79.81 53.79 80.74 52.41 142.47 52.41 142.47 53.79"/><path class="cls-1" d="m63.4,27.73c0,1.82-1.47,3.29-3.29,3.29s-3.29-1.47-3.29-3.29,1.47-3.28,3.29-3.28,3.29,1.47,3.29,3.28"/><path class="cls-1" d="m55.99,27.22l-12.34.51,12.33.52c-.02-.16-.03-.32-.03-.48,0-.19.02-.37.04-.55m1.6-2.76l-9.1-8.37,8.36,9.1c.22-.27.47-.52.74-.73m6.65,2.75c.03.18.04.36.04.55,0,.17-.01.33-.03.48l12.35-.52-12.36-.52Zm-.84-2l8.36-9.1-9.09,8.37c.27.21.52.46.73.73m-2.76-1.58l-.52-12.35-.52,12.34c.17-.02.33-.03.5-.03s.36.01.53.04"/><rect class="cls-1" x="28.53" y="56.7" width="3.13" height="10.09"/><polygon class="cls-1" points="37.41 66.78 37.41 56.7 41.63 56.7 45.6 63.68 45.64 63.68 45.64 56.7 48.56 56.7 48.56 66.78 44.44 66.78 40.37 59.41 40.32 59.41 40.32 66.78 37.41 66.78"/><path class="cls-1" d="m58.35,66.95c-3.87,0-4.59-1.53-4.43-3.28h3.13c0,.97.06,1.77,1.78,1.77,1.05,0,1.57-.46,1.57-1.15,0-1.81-6.29-1.92-6.29-4.93,0-1.58,1.12-2.84,4.92-2.84,3.04,0,4.55.92,4.34,3.03h-3.04c0-.76-.19-1.52-1.45-1.52-1.02,0-1.61.37-1.61,1.07,0,1.91,6.29,1.74,6.29,4.92,0,2.61-2.83,2.92-5.21,2.92"/><path class="cls-1" d="m79,56.7v7.15c0,1.51-1.26,3.1-5.07,3.1-3.43,0-5.09-1.2-5.09-3.1v-7.15h3.12v7.02c0,1.24.79,1.73,1.93,1.73,1.37,0,1.99-.61,1.99-1.73v-7.02h3.12"/><path class="cls-1" d="m87.71,61.05h1.39c1.24,0,1.59-.83,1.59-1.48,0-.97-.6-1.33-1.59-1.33h-1.39v2.8Zm0,5.73h-3.12v-10.08h5.77c2.13,0,3.5.92,3.5,2.64,0,1.28-.74,2.25-2.77,2.47v.03c.68.06,2.71.17,2.71,1.98,0,.65.06,2.54.35,2.96h-3.06c-.42-.62-.33-1.3-.33-1.95,0-1.2.16-2.23-2.23-2.23h-.81v4.18"/><path class="cls-1" d="m104.14,58.64h-.04l-1.43,4.36h2.98l-1.51-4.36Zm-6.02,8.14l4.14-10.09h4.12l4.06,10.09h-3.29l-.83-2.23h-4.26l-.85,2.23h-3.08Z"/><polygon class="cls-1" points="115.02 66.78 115.02 56.7 119.24 56.7 123.22 63.68 123.26 63.68 123.26 56.7 126.18 56.7 126.18 66.78 122.06 66.78 117.98 59.41 117.94 59.41 117.94 66.78 115.02 66.78"/><path class="cls-1" d="m131.76,61.74c0-2.66,0-5.21,5.15-5.21,3.19,0,4.47,1.19,4.34,3.35h-3.06c0-1.34-.36-1.84-1.29-1.84-1.76,0-1.98,1.12-1.98,3.7s.23,3.71,1.98,3.71c1.45,0,1.39-1.25,1.43-2.05h3.09c0,2.69-1.6,3.56-4.51,3.56-5.15,0-5.15-2.57-5.15-5.22"/><polygon class="cls-1" points="146.51 66.78 146.51 56.7 154.67 56.7 154.67 58.25 149.64 58.25 149.64 60.74 154.28 60.74 154.28 62.29 149.64 62.29 149.64 65.24 154.84 65.24 154.84 66.78 146.51 66.78"/><path class="cls-1" d="m159.98,32.92h.27c.32,0,.58-.11.58-.36,0-.23-.17-.38-.53-.38-.15,0-.26.01-.32.03v.71Zm-.02,1.4h-.58v-2.49c.23-.03.55-.08.96-.08.47,0,.68.08.85.2.15.1.26.29.26.53,0,.3-.22.5-.51.59v.03c.24.08.36.27.44.6.08.38.14.52.18.61h-.61c-.07-.09-.12-.3-.2-.61-.04-.26-.2-.38-.52-.38h-.27v.99Zm-1.53-1.29c0,1.11.83,1.99,1.94,1.99,1.08.01,1.9-.88,1.9-1.97s-.82-2-1.93-2-1.91.9-1.91,1.99m4.47,0c0,1.4-1.12,2.5-2.55,2.5s-2.56-1.11-2.56-2.5,1.14-2.48,2.58-2.48,2.53,1.09,2.53,2.48"/></g><g><path class="cls-1" d="m29.66,85.53h-3.01l.29-1.66h8.21l-.29,1.66h-3.01l-1.47,8.32h-2.18l1.47-8.32Z"/><path class="cls-1" d="m36.27,83.89h2.06l-.7,3.95c.3-.33.94-1.05,2.23-1.05,1.05,0,1.63.51,1.89.94.19.34.29.98.13,1.89l-.75,4.23h-2.06l.73-4.17c.07-.4.27-1.52-.9-1.52-.59,0-1.39.33-1.58,1.42l-.74,4.26h-2.09l1.76-9.96Z"/><path class="cls-1" d="m45.2,90.89c-.08.46-.33,1.86,1.11,1.86.52,0,1.07-.19,1.4-.97h1.89c-.09.33-.26.92-.94,1.52-.61.54-1.59.81-2.62.81-.6,0-1.73-.11-2.34-.87-.53-.66-.63-1.6-.43-2.72.2-1.13.72-2.48,2.05-3.3.61-.36,1.32-.58,2.09-.58,1.01,0,2.15.39,2.56,1.68.31.95.1,1.97-.03,2.55h-4.75Zm2.86-1.28c.06-.32.25-1.56-.96-1.56-.91,0-1.42.75-1.61,1.56h2.56Z"/><path class="cls-1" d="m62.75,86.94c.03-.26.08-.62-.1-1.01-.3-.66-1.08-.77-1.56-.77-2.47,0-3.35,2.26-3.62,3.79-.12.68-.23,1.89.37,2.68.41.55,1.03.86,2.23.86,1.05,0,1.44-.12,1.69-.19l.37-2.1h-1.96l.29-1.66h4.13l-.88,4.98c-.67.21-1.76.55-3.79.55-2.31,0-3.4-.55-4.07-1.32-.94-1.09-.87-2.68-.69-3.73.62-3.53,3.2-5.42,6.26-5.42,1.3,0,2.58.36,3.23,1.26.54.76.44,1.54.36,2.08h-2.26Z"/><path class="cls-1" d="m68.84,86.89l-.73,4.15c-.11.61-.27,1.53.84,1.53,1.33,0,1.5-.98,1.71-2.17l.62-3.52h2.13l-.81,4.59c-.24,1.5-.25,1.68-.29,1.86-.02.19-.03.32-.03.51h-2.02l.09-.92c-.26.3-.94,1.1-2.28,1.1-.95,0-1.66-.43-1.96-.94-.36-.57-.19-1.53-.13-1.88l.76-4.33h2.1Z"/><path class="cls-1" d="m75.93,91.84c-.05.44.14.95,1.01.95.74,0,1.16-.41,1.24-.83.06-.32-.07-.57-.84-.79l-1.23-.35c-.54-.17-1.7-.51-1.45-1.93.24-1.35,1.65-2.18,3.48-2.18,1.46,0,2.52.66,2.33,2.06h-1.89c.08-.77-.54-.83-.86-.83-.56,0-1.03.26-1.1.69-.08.47.25.57.84.73l1.21.35c1.23.34,1.72.99,1.55,1.94-.21,1.2-1.47,2.4-3.67,2.4-.91,0-1.74-.19-2.27-.85-.38-.48-.32-1.03-.28-1.37h1.95Z"/><path class="cls-1" d="m85.31,93.76c-.7.18-1.31.22-1.65.22-2.09,0-1.86-1.3-1.76-1.88l.67-3.82h-1.36l.24-1.35h1.36l.24-1.37,2.19-.75-.37,2.11h1.68l-.24,1.35h-1.68l-.55,3.15c-.1.63-.17,1.03.76,1.03.31,0,.45-.01.71-.04l-.24,1.34Z"/><path class="cls-1" d="m90.82,93.85c0-.43.06-.75.1-.95-.98,1.12-1.92,1.12-2.31,1.12-1.02,0-1.43-.29-1.67-.55-.35-.41-.44-.98-.35-1.53.1-.55.47-1.57,1.88-2.17.94-.39,2.18-.39,2.87-.39.08-.46.11-.68.07-.92-.09-.51-.63-.58-.82-.58-.29,0-.62.12-.85.39-.2.23-.23.46-.26.62h-2.03c.08-.37.25-1.12,1.09-1.64.72-.46,1.57-.57,2.24-.57.59,0,1.8.1,2.36.9.38.57.24,1.39.19,1.71l-.48,2.8c-.1.59-.17,1.19-.14,1.77h-1.88Zm-2.17-2.15c-.08.47.15.99.83.99.38,0,.72-.18.95-.4.44-.44.56-.98.7-1.72-1.31-.11-2.34.3-2.48,1.13Z"/><path class="cls-1" d="m96.71,86.89l.76,4.73,2.46-4.73h2l-3.78,6.97h-2.3l-1.36-6.97h2.21Z"/><path class="cls-1" d="m106.17,86.72c2.56,0,3.37,1.71,3.03,3.66-.35,1.96-1.81,3.72-4.37,3.72-2.02,0-3.4-1.23-2.97-3.67.3-1.68,1.52-3.71,4.31-3.71Zm-1.02,5.96c.91,0,1.62-.54,1.95-2.39.16-.92.21-2.21-1.17-2.21-1.51,0-1.83,1.72-1.94,2.36-.27,1.56.14,2.23,1.16,2.23Z"/><path class="cls-1" d="m115.72,83.88h3.88c1.12-.01,2.26-.01,2.95.68.54.54.66,1.27.54,1.92-.33,1.86-2.03,2.3-2.54,2.44,1.5.14,1.46.99,1.42,2.29-.05,1.17-.05,1.65-.03,1.93.03.44.1.55.18.72h-2.4c0-.55.14-3.08.06-3.46-.1-.57-.63-.57-.99-.57h-1.91l-.71,4.03h-2.21l1.76-9.97Zm1.37,4.36h1.75c.25,0,.76,0,1.16-.28.17-.11.64-.46.76-1.16.12-.68-.16-.99-.33-1.12-.29-.23-.7-.23-1.39-.23h-1.46l-.49,2.79Z"/><path class="cls-1" d="m127.61,93.85c0-.43.06-.75.1-.95-.98,1.12-1.92,1.12-2.31,1.12-1.02,0-1.43-.29-1.67-.55-.35-.41-.44-.98-.35-1.53.1-.55.47-1.57,1.88-2.17.94-.39,2.18-.39,2.87-.39.08-.46.11-.68.07-.92-.09-.51-.63-.58-.82-.58-.29,0-.62.12-.85.39-.2.23-.23.46-.26.62h-2.03c.08-.37.25-1.12,1.09-1.64.72-.46,1.57-.57,2.24-.57.59,0,1.8.1,2.36.9.38.57.25,1.39.19,1.71l-.48,2.8c-.1.59-.17,1.19-.14,1.77h-1.88Zm-2.17-2.15c-.08.47.15.99.83.99.38,0,.72-.18.95-.4.44-.44.57-.98.7-1.72-1.31-.11-2.34.3-2.48,1.13Z"/><path class="cls-1" d="m132.19,88.13s.14-.79.18-1.27h1.99l-.13,1.05c.25-.32.97-1.21,2.51-1.21,1.39,0,1.83.83,1.93,1.31.08.43.06.79-.17,2.08l-.66,3.77h-2.12l.76-4.33c.05-.29.09-.54.02-.76-.1-.3-.37-.59-.9-.59-.45,0-.89.21-1.17.54-.16.18-.34.52-.44,1.06l-.72,4.08h-2.09l1.01-5.72Z"/><path class="cls-1" d="m147.64,86.91c-.15.55-.28,1.02-.4,1.72l-.91,5.15c-.45,2.57-2.67,2.81-4.03,2.81-1.01,0-2.96-.12-2.71-2.23h1.99c0,.21-.04.97,1.06.97.62,0,1.2-.29,1.45-.91.14-.34.19-.59.39-1.66-.81.85-1.57.95-2.07.95-2.03,0-2.68-1.74-2.38-3.42.31-1.77,1.6-3.45,3.63-3.45,1.29,0,1.64.69,1.8.99l.23-.92h1.95Zm-4.51,5.41c1.46,0,1.75-1.68,1.81-1.99.14-.79.22-2.12-1.04-2.12-.79,0-1.53.59-1.8,2.08-.06.34-.36,2.03,1.03,2.03Z"/><path class="cls-1" d="m150.17,90.89c-.08.46-.33,1.86,1.12,1.86.52,0,1.07-.19,1.4-.97h1.89c-.09.33-.26.92-.94,1.52-.61.54-1.59.81-2.62.81-.6,0-1.73-.11-2.34-.87-.53-.66-.63-1.6-.43-2.72.2-1.13.72-2.48,2.05-3.3.61-.36,1.32-.58,2.09-.58,1.01,0,2.15.39,2.56,1.68.31.95.1,1.97-.03,2.55h-4.75Zm2.86-1.28c.06-.32.25-1.56-.96-1.56-.91,0-1.42.75-1.61,1.56h2.56Z"/><path class="cls-1" d="m157.52,83.88h2.07l-1.76,9.97h-2.07l1.76-9.97Z"/><path class="cls-1" d="m72.5,99.88l1.76,9.97h-2.19l-.35-2.15h-4.01l-1.14,2.15h-2.07l5.41-9.97h2.58Zm-1.04,6.21l-.65-4.25-2.25,4.25h2.9Z"/><path class="cls-1" d="m83.11,102.91c-.15.55-.28,1.02-.4,1.72l-.91,5.15c-.45,2.57-2.67,2.81-4.03,2.81-1.01,0-2.96-.12-2.71-2.24h1.99c0,.21-.04.97,1.06.97.62,0,1.2-.29,1.45-.91.14-.35.19-.59.39-1.66-.81.85-1.57.95-2.07.95-2.03,0-2.68-1.74-2.38-3.42.31-1.77,1.6-3.45,3.63-3.45,1.29,0,1.64.69,1.8.99l.23-.92h1.95Zm-4.51,5.41c1.46,0,1.75-1.68,1.81-1.99.14-.79.22-2.12-1.04-2.12-.79,0-1.53.59-1.8,2.08-.06.34-.36,2.03,1.03,2.03Z"/><path class="cls-1" d="m85.64,106.89c-.08.46-.33,1.86,1.11,1.86.52,0,1.07-.19,1.4-.97h1.89c-.09.33-.26.92-.94,1.52-.61.54-1.59.81-2.62.81-.6,0-1.73-.11-2.34-.87-.53-.66-.63-1.6-.43-2.72.2-1.13.72-2.48,2.05-3.3.61-.36,1.32-.58,2.09-.58,1.01,0,2.15.39,2.56,1.68.31.95.1,1.97-.03,2.55h-4.75Zm2.86-1.28c.06-.32.25-1.56-.96-1.56-.91,0-1.42.74-1.61,1.56h2.56Z"/><path class="cls-1" d="m92.27,104.13s.14-.79.18-1.27h1.99l-.13,1.05c.25-.32.97-1.21,2.51-1.21,1.39,0,1.83.83,1.92,1.31.08.43.06.79-.17,2.08l-.66,3.77h-2.12l.76-4.33c.05-.29.09-.54.02-.76-.1-.3-.37-.59-.9-.59-.45,0-.89.21-1.17.54-.16.18-.34.52-.44,1.06l-.72,4.08h-2.09l1.01-5.72Z"/><path class="cls-1" d="m104.32,105.36c.02-.25.11-1.28-.68-1.28-.98,0-1.35,1.46-1.48,2.22-.07.39-.25,1.63.14,2.14.16.21.36.23.52.23.22,0,.89-.1,1.19-1.34h2.04c-.12.54-.34,1.38-1.27,2.06-.58.43-1.25.65-2.13.65-.94,0-1.73-.21-2.25-.92-.49-.7-.61-1.63-.41-2.75.56-3.17,3-3.61,3.94-3.61,1.32,0,2.75.72,2.43,2.61h-2.03Z"/><path class="cls-1" d="m109.54,102.89l.7,4.83,2.43-4.83h2.06l-3.88,6.84-1.34,2.77h-2.09l1.36-2.62-1.48-6.99h2.24Z"/></g></svg>